<?plantuml 1.2026.2?><svg xmlns="http://www.w3.org/2000/svg" xmlns:xlink="http://www.w3.org/1999/xlink" contentStyleType="text/css" data-diagram-type="SEQUENCE" height="786px" preserveAspectRatio="none" style="width:1784px;height:786px;background:#FFFFFF;" version="1.1" viewBox="0 0 1784 786" width="1784px" zoomAndPan="magnify"><title>UC-04 Select LaTeX Template and Generate Resume Code - Sequence Diagram</title><defs/><g><text fill="#000000" font-family="Microsoft YaHei" font-size="14" font-weight="bold" lengthAdjust="spacing" textLength="552.2959" x="617.3696" y="29.8135">UC-04 Select LaTeX Template and Generate Resume Code - Sequence Diagram</text><g class="participant-lifeline" data-entity-uid="part1" data-qualified-name="User" id="part1-lifeline"><g><title>User</title><rect fill="#000000" fill-opacity="0.00000" height="580.8389" width="8" x="19.1108" y="122.9551"/><line style="stroke:#181818;stroke-width:0.5;stroke-dasharray:5,5;" x1="23" x2="23" y1="122.9551" y2="703.7939"/></g></g><g class="participant-lifeline" data-entity-uid="part2" data-qualified-name="TemplatePage" id="part2-lifeline"><g><title>TemplatePage</title><rect fill="#000000" fill-opacity="0.00000" height="580.8389" width="8" x="318.25" y="122.9551"/><line style="stroke:#181818;stroke-width:0.5;stroke-dasharray:5,5;" x1="321.3232" x2="321.3232" y1="122.9551" y2="703.7939"/></g></g><g class="participant-lifeline" data-entity-uid="part3" data-qualified-name="TemplateController" id="part3-lifeline"><g><title>TemplateController</title><rect fill="#000000" fill-opacity="0.00000" height="580.8389" width="8" x="605.4746" y="122.9551"/><line style="stroke:#181818;stroke-width:0.5;stroke-dasharray:5,5;" x1="608.6016" x2="608.6016" y1="122.9551" y2="703.7939"/></g></g><g class="participant-lifeline" data-entity-uid="part4" data-qualified-name="LatexService" id="part4-lifeline"><g><title>LatexService</title><rect fill="#000000" fill-opacity="0.00000" height="580.8389" width="8" x="896.7998" y="122.9551"/><line style="stroke:#181818;stroke-width:0.5;stroke-dasharray:5,5;" x1="900.5073" x2="900.5073" y1="122.9551" y2="703.7939"/></g></g><g class="participant-lifeline" data-entity-uid="part5" data-qualified-name="LatexTemplateAgent" id="part5-lifeline"><g><title>LatexTemplateAgent</title><rect fill="#000000" fill-opacity="0.00000" height="580.8389" width="8" x="1143.4185" y="122.9551"/><line style="stroke:#181818;stroke-width:0.5;stroke-dasharray:5,5;" x1="1147.208" x2="1147.208" y1="122.9551" y2="703.7939"/></g></g><g class="participant-lifeline" data-entity-uid="part6" data-qualified-name="ResumeRepository" id="part6-lifeline"><g><title>ResumeRepository</title><rect fill="#000000" fill-opacity="0.00000" height="580.8389" width="8" x="1291.2563" y="122.9551"/><line style="stroke:#181818;stroke-width:0.5;stroke-dasharray:5,5;" x1="1294.6289" x2="1294.6289" y1="122.9551" y2="703.7939"/></g></g><g class="participant-lifeline" data-entity-uid="part7" data-qualified-name="ResumeTemplateRepository" id="part7-lifeline"><g><title>ResumeTemplateRepository</title><rect fill="#000000" fill-opacity="0.00000" height="580.8389" width="8" x="1463.8369" y="122.9551"/><line style="stroke:#181818;stroke-width:0.5;stroke-dasharray:5,5;" x1="1466.8838" x2="1466.8838" y1="122.9551" y2="703.7939"/></g></g><g class="participant-lifeline" data-entity-uid="part8" data-qualified-name="ResumeTemplate" id="part8-lifeline"><g><title>ResumeTemplate</title><rect fill="#000000" fill-opacity="0.00000" height="580.8389" width="8" x="1631.7417" y="122.9551"/><line style="stroke:#181818;stroke-width:0.5;stroke-dasharray:5,5;" x1="1634.79" x2="1634.79" y1="122.9551" y2="703.7939"/></g></g><g class="participant-lifeline" data-entity-uid="part9" data-qualified-name="LatexCode" id="part9-lifeline"><g><title>LatexCode</title><rect fill="#000000" fill-opacity="0.00000" height="580.8389" width="8" x="1740.8643" y="122.9551"/><line style="stroke:#181818;stroke-width:0.5;stroke-dasharray:5,5;" x1="1744.6934" x2="1744.6934" y1="122.9551" y2="703.7939"/></g></g><g class="participant participant-head" data-entity-uid="part1" data-qualified-name="User" id="part1-head"><text fill="#000000" font-family="Microsoft YaHei" font-size="14" lengthAdjust="spacing" textLength="30.2217" x="5" y="119.291">User</text><ellipse cx="23.1108" cy="52.9775" fill="#E2E2F0" rx="8" ry="8" style="stroke:#181818;stroke-width:0.5;"/><path d="M23.1108,60.9775 L23.1108,87.9775 M10.1108,68.9775 L36.1108,68.9775 M23.1108,87.9775 L10.1108,102.9775 M23.1108,87.9775 L36.1108,102.9775" fill="none" style="stroke:#181818;stroke-width:0.5;"/></g><g class="participant participant-tail" data-entity-uid="part1" data-qualified-name="User" id="part1-tail"><text fill="#000000" font-family="Microsoft YaHei" font-size="14" lengthAdjust="spacing" textLength="30.2217" x="5" y="717.6074">User</text><ellipse cx="23.1108" cy="729.7715" fill="#E2E2F0" rx="8" ry="8" style="stroke:#181818;stroke-width:0.5;"/><path d="M23.1108,737.7715 L23.1108,764.7715 M10.1108,745.7715 L36.1108,745.7715 M23.1108,764.7715 L10.1108,779.7715 M23.1108,764.7715 L36.1108,779.7715" fill="none" style="stroke:#181818;stroke-width:0.5;"/></g><g class="participant participant-head" data-entity-uid="part2" data-qualified-name="TemplatePage" id="part2-head"><text fill="#000000" font-family="Microsoft YaHei" font-size="14" lengthAdjust="spacing" textLength="95.8535" x="271.3232" y="119.291">TemplatePage</text><path d="M301.75,76.4775 L301.75,100.4775 M301.75,88.4775 L318.75,88.4775" fill="none" style="stroke:#181818;stroke-width:0.5;"/><ellipse cx="330.75" cy="88.4775" fill="#E2E2F0" rx="12" ry="12" style="stroke:#181818;stroke-width:0.5;"/></g><g class="participant participant-tail" data-entity-uid="part2" data-qualified-name="TemplatePage" id="part2-tail"><text fill="#000000" font-family="Microsoft YaHei" font-size="14" lengthAdjust="spacing" textLength="95.8535" x="271.3232" y="717.6074">TemplatePage</text><path d="M301.75,725.2715 L301.75,749.2715 M301.75,737.2715 L318.75,737.2715" fill="none" style="stroke:#181818;stroke-width:0.5;"/><ellipse cx="330.75" cy="737.2715" fill="#E2E2F0" rx="12" ry="12" style="stroke:#181818;stroke-width:0.5;"/></g><g class="participant participant-head" data-entity-uid="part3" data-qualified-name="TemplateController" id="part3-head"><text fill="#000000" font-family="Microsoft YaHei" font-size="14" lengthAdjust="spacing" textLength="129.7461" x="541.6016" y="119.291">TemplateController</text><ellipse cx="609.4746" cy="88.4775" fill="#E2E2F0" rx="12" ry="12" style="stroke:#181818;stroke-width:0.5;"/><polygon fill="#181818" points="605.4746,76.4775,611.4746,71.4775,609.4746,76.4775,611.4746,81.4775,605.4746,76.4775" style="stroke:#181818;stroke-width:1;"/></g><g class="participant participant-tail" data-entity-uid="part3" data-qualified-name="TemplateController" id="part3-tail"><text fill="#000000" font-family="Microsoft YaHei" font-size="14" lengthAdjust="spacing" textLength="129.7461" x="541.6016" y="717.6074">TemplateController</text><ellipse cx="609.4746" cy="737.2715" fill="#E2E2F0" rx="12" ry="12" style="stroke:#181818;stroke-width:0.5;"/><polygon fill="#181818" points="605.4746,725.2715,611.4746,720.2715,609.4746,725.2715,611.4746,730.2715,605.4746,725.2715" style="stroke:#181818;stroke-width:1;"/></g><g class="participant participant-head" data-entity-uid="part4" data-qualified-name="LatexService" id="part4-head"><text fill="#000000" font-family="Microsoft YaHei" font-size="14" lengthAdjust="spacing" textLength="82.585" x="856.5073" y="119.291">LatexService</text><ellipse cx="900.7998" cy="88.4775" fill="#E2E2F0" rx="12" ry="12" style="stroke:#181818;stroke-width:0.5;"/><polygon fill="#181818" points="896.7998,76.4775,902.7998,71.4775,900.7998,76.4775,902.7998,81.4775,896.7998,76.4775" style="stroke:#181818;stroke-width:1;"/></g><g class="participant participant-tail" data-entity-uid="part4" data-qualified-name="LatexService" id="part4-tail"><text fill="#000000" font-family="Microsoft YaHei" font-size="14" lengthAdjust="spacing" textLength="82.585" x="856.5073" y="717.6074">LatexService</text><ellipse cx="900.7998" cy="737.2715" fill="#E2E2F0" rx="12" ry="12" style="stroke:#181818;stroke-width:0.5;"/><polygon fill="#181818" points="896.7998,725.2715,902.7998,720.2715,900.7998,725.2715,902.7998,730.2715,896.7998,725.2715" style="stroke:#181818;stroke-width:1;"/></g><g class="participant participant-head" data-entity-uid="part5" data-qualified-name="LatexTemplateAgent" id="part5-head"><text fill="#000000" font-family="Microsoft YaHei" font-size="14" lengthAdjust="spacing" textLength="138.4209" x="1075.208" y="119.291">LatexTemplateAgent</text><ellipse cx="1147.4185" cy="88.4775" fill="#E2E2F0" rx="12" ry="12" style="stroke:#181818;stroke-width:0.5;"/><polygon fill="#181818" points="1143.4185,76.4775,1149.4185,71.4775,1147.4185,76.4775,1149.4185,81.4775,1143.4185,76.4775" style="stroke:#181818;stroke-width:1;"/></g><g class="participant participant-tail" data-entity-uid="part5" data-qualified-name="LatexTemplateAgent" id="part5-tail"><text fill="#000000" font-family="Microsoft YaHei" font-size="14" lengthAdjust="spacing" textLength="138.4209" x="1075.208" y="717.6074">LatexTemplateAgent</text><ellipse cx="1147.4185" cy="737.2715" fill="#E2E2F0" rx="12" ry="12" style="stroke:#181818;stroke-width:0.5;"/><polygon fill="#181818" points="1143.4185,725.2715,1149.4185,720.2715,1147.4185,725.2715,1149.4185,730.2715,1143.4185,725.2715" style="stroke:#181818;stroke-width:1;"/></g><g class="participant participant-head" data-entity-uid="part6" data-qualified-name="ResumeRepository" id="part6-head"><text fill="#000000" font-family="Microsoft YaHei" font-size="14" lengthAdjust="spacing" textLength="125.2549" x="1229.6289" y="119.291">ResumeRepository</text><path d="M1277.2563,68.4775 C1277.2563,58.4775 1295.2563,58.4775 1295.2563,58.4775 C1295.2563,58.4775 1313.2563,58.4775 1313.2563,68.4775 L1313.2563,94.4775 C1313.2563,104.4775 1295.2563,104.4775 1295.2563,104.4775 C1295.2563,104.4775 1277.2563,104.4775 1277.2563,94.4775 L1277.2563,68.4775" fill="#E2E2F0" style="stroke:#181818;stroke-width:0.5;"/><path d="M1277.2563,68.4775 C1277.2563,78.4775 1295.2563,78.4775 1295.2563,78.4775 C1295.2563,78.4775 1313.2563,78.4775 1313.2563,68.4775" fill="none" style="stroke:#181818;stroke-width:0.5;"/></g><g class="participant participant-tail" data-entity-uid="part6" data-qualified-name="ResumeRepository" id="part6-tail"><text fill="#000000" font-family="Microsoft YaHei" font-size="14" lengthAdjust="spacing" textLength="125.2549" x="1229.6289" y="717.6074">ResumeRepository</text><path d="M1277.2563,731.2715 C1277.2563,721.2715 1295.2563,721.2715 1295.2563,721.2715 C1295.2563,721.2715 1313.2563,721.2715 1313.2563,731.2715 L1313.2563,757.2715 C1313.2563,767.2715 1295.2563,767.2715 1295.2563,767.2715 C1295.2563,767.2715 1277.2563,767.2715 1277.2563,757.2715 L1277.2563,731.2715" fill="#E2E2F0" style="stroke:#181818;stroke-width:0.5;"/><path d="M1277.2563,731.2715 C1277.2563,741.2715 1295.2563,741.2715 1295.2563,741.2715 C1295.2563,741.2715 1313.2563,741.2715 1313.2563,731.2715" fill="none" style="stroke:#181818;stroke-width:0.5;"/></g><g class="participant participant-head" data-entity-uid="part7" data-qualified-name="ResumeTemplateRepository" id="part7-head"><text fill="#000000" font-family="Microsoft YaHei" font-size="14" lengthAdjust="spacing" textLength="187.9063" x="1370.8838" y="119.291">ResumeTemplateRepository</text><path d="M1449.8369,68.4775 C1449.8369,58.4775 1467.8369,58.4775 1467.8369,58.4775 C1467.8369,58.4775 1485.8369,58.4775 1485.8369,68.4775 L1485.8369,94.4775 C1485.8369,104.4775 1467.8369,104.4775 1467.8369,104.4775 C1467.8369,104.4775 1449.8369,104.4775 1449.8369,94.4775 L1449.8369,68.4775" fill="#E2E2F0" style="stroke:#181818;stroke-width:0.5;"/><path d="M1449.8369,68.4775 C1449.8369,78.4775 1467.8369,78.4775 1467.8369,78.4775 C1467.8369,78.4775 1485.8369,78.4775 1485.8369,68.4775" fill="none" style="stroke:#181818;stroke-width:0.5;"/></g><g class="participant participant-tail" data-entity-uid="part7" data-qualified-name="ResumeTemplateRepository" id="part7-tail"><text fill="#000000" font-family="Microsoft YaHei" font-size="14" lengthAdjust="spacing" textLength="187.9063" x="1370.8838" y="717.6074">ResumeTemplateRepository</text><path d="M1449.8369,731.2715 C1449.8369,721.2715 1467.8369,721.2715 1467.8369,721.2715 C1467.8369,721.2715 1485.8369,721.2715 1485.8369,731.2715 L1485.8369,757.2715 C1485.8369,767.2715 1467.8369,767.2715 1467.8369,767.2715 C1467.8369,767.2715 1449.8369,767.2715 1449.8369,757.2715 L1449.8369,731.2715" fill="#E2E2F0" style="stroke:#181818;stroke-width:0.5;"/><path d="M1449.8369,731.2715 C1449.8369,741.2715 1467.8369,741.2715 1467.8369,741.2715 C1467.8369,741.2715 1485.8369,741.2715 1485.8369,731.2715" fill="none" style="stroke:#181818;stroke-width:0.5;"/></g><g class="participant participant-head" data-entity-uid="part8" data-qualified-name="ResumeTemplate" id="part8-head"><text fill="#000000" font-family="Microsoft YaHei" font-size="14" lengthAdjust="spacing" textLength="115.9033" x="1574.79" y="119.291">ResumeTemplate</text><ellipse cx="1635.7417" cy="88.4775" fill="#E2E2F0" rx="12" ry="12" style="stroke:#181818;stroke-width:0.5;"/><line style="stroke:#181818;stroke-width:0.5;" x1="1623.7417" x2="1647.7417" y1="102.4775" y2="102.4775"/></g><g class="participant participant-tail" data-entity-uid="part8" data-qualified-name="ResumeTemplate" id="part8-tail"><text fill="#000000" font-family="Microsoft YaHei" font-size="14" lengthAdjust="spacing" textLength="115.9033" x="1574.79" y="717.6074">ResumeTemplate</text><ellipse cx="1635.7417" cy="737.2715" fill="#E2E2F0" rx="12" ry="12" style="stroke:#181818;stroke-width:0.5;"/><line style="stroke:#181818;stroke-width:0.5;" x1="1623.7417" x2="1647.7417" y1="751.2715" y2="751.2715"/></g><g class="participant participant-head" data-entity-uid="part9" data-qualified-name="LatexCode" id="part9-head"><text fill="#000000" font-family="Microsoft YaHei" font-size="14" lengthAdjust="spacing" textLength="70.3418" x="1706.6934" y="119.291">LatexCode</text><ellipse cx="1744.8643" cy="88.4775" fill="#E2E2F0" rx="12" ry="12" style="stroke:#181818;stroke-width:0.5;"/><line style="stroke:#181818;stroke-width:0.5;" x1="1732.8643" x2="1756.8643" y1="102.4775" y2="102.4775"/></g><g class="participant participant-tail" data-entity-uid="part9" data-qualified-name="LatexCode" id="part9-tail"><text fill="#000000" font-family="Microsoft YaHei" font-size="14" lengthAdjust="spacing" textLength="70.3418" x="1706.6934" y="717.6074">LatexCode</text><ellipse cx="1744.8643" cy="737.2715" fill="#E2E2F0" rx="12" ry="12" style="stroke:#181818;stroke-width:0.5;"/><line style="stroke:#181818;stroke-width:0.5;" x1="1732.8643" x2="1756.8643" y1="751.2715" y2="751.2715"/></g><g class="message" data-entity-1="part1" data-entity-2="part2" id="msg1"><polygon fill="#181818" points="310.25,152.1128,320.25,156.1128,310.25,160.1128,314.25,156.1128" style="stroke:#181818;stroke-width:1;"/><line style="stroke:#181818;stroke-width:1;" x1="23.1108" x2="316.25" y1="156.1128" y2="156.1128"/><text fill="#000000" font-family="Microsoft YaHei" font-size="13" lengthAdjust="spacing" textLength="157.8726" x="93.7441" y="150.7104">queryResumeTemplates()</text></g><g class="message" data-entity-1="part2" data-entity-2="part3" id="msg2"><polygon fill="#181818" points="597.4746,183.2705,607.4746,187.2705,597.4746,191.2705,601.4746,187.2705" style="stroke:#181818;stroke-width:1;"/><line style="stroke:#181818;stroke-width:1;" x1="322.25" x2="603.4746" y1="187.2705" y2="187.2705"/><text fill="#000000" font-family="Microsoft YaHei" font-size="13" lengthAdjust="spacing" textLength="146.8022" x="392.4612" y="181.8682">GET /resume-templates</text></g><g class="message" data-entity-1="part3" data-entity-2="part4" id="msg3"><polygon fill="#181818" points="888.7998,214.4282,898.7998,218.4282,888.7998,222.4282,892.7998,218.4282" style="stroke:#181818;stroke-width:1;"/><line style="stroke:#181818;stroke-width:1;" x1="609.4746" x2="894.7998" y1="218.4282" y2="218.4282"/><text fill="#000000" font-family="Microsoft YaHei" font-size="13" lengthAdjust="spacing" textLength="128.8257" x="690.7244" y="213.0259">listActiveTemplates()</text></g><g class="message" data-entity-1="part4" data-entity-2="part7" id="msg4"><polygon fill="#181818" points="1455.8369,245.5859,1465.8369,249.5859,1455.8369,253.5859,1459.8369,249.5859" style="stroke:#181818;stroke-width:1;"/><line style="stroke:#181818;stroke-width:1;" x1="900.7998" x2="1461.8369" y1="249.5859" y2="249.5859"/><text fill="#000000" font-family="Microsoft YaHei" font-size="13" lengthAdjust="spacing" textLength="71.1445" x="1148.7461" y="244.1836">findActive()</text></g><g class="message" data-entity-1="part7" data-entity-2="part4" id="msg5"><polygon fill="#181818" points="911.7998,276.7437,901.7998,280.7437,911.7998,284.7437,907.7998,280.7437" style="stroke:#181818;stroke-width:1;"/><line style="stroke:#181818;stroke-width:1;stroke-dasharray:2,2;" x1="905.7998" x2="1466.8369" y1="280.7437" y2="280.7437"/><text fill="#000000" font-family="Microsoft YaHei" font-size="13" lengthAdjust="spacing" textLength="61.585" x="1153.5259" y="275.3413">templates</text></g><g class="message" data-entity-1="part4" data-entity-2="part3" id="msg6"><polygon fill="#181818" points="620.4746,307.9014,610.4746,311.9014,620.4746,315.9014,616.4746,311.9014" style="stroke:#181818;stroke-width:1;"/><line style="stroke:#181818;stroke-width:1;stroke-dasharray:2,2;" x1="614.4746" x2="899.7998" y1="311.9014" y2="311.9014"/><text fill="#000000" font-family="Microsoft YaHei" font-size="13" lengthAdjust="spacing" textLength="61.585" x="724.3447" y="306.499">templates</text></g><g class="message" data-entity-1="part3" data-entity-2="part2" id="msg7"><polygon fill="#181818" points="333.25,339.0591,323.25,343.0591,333.25,347.0591,329.25,343.0591" style="stroke:#181818;stroke-width:1;"/><line style="stroke:#181818;stroke-width:1;stroke-dasharray:2,2;" x1="327.25" x2="608.4746" y1="343.0591" y2="343.0591"/><text fill="#000000" font-family="Microsoft YaHei" font-size="13" lengthAdjust="spacing" textLength="77.1938" x="427.2654" y="337.6567">template list</text></g><g class="message" data-entity-1="part1" data-entity-2="part2" id="msg8"><polygon fill="#181818" points="310.25,370.2168,320.25,374.2168,310.25,378.2168,314.25,374.2168" style="stroke:#181818;stroke-width:1;"/><line style="stroke:#181818;stroke-width:1;" x1="23.1108" x2="316.25" y1="374.2168" y2="374.2168"/><text fill="#000000" font-family="Microsoft YaHei" font-size="13" lengthAdjust="spacing" textLength="275.1392" x="35.1108" y="368.8145">generateLatexResume(resumeId,templateId)</text></g><g class="message" data-entity-1="part2" data-entity-2="part3" id="msg9"><polygon fill="#181818" points="597.4746,401.3745,607.4746,405.3745,597.4746,409.3745,601.4746,405.3745" style="stroke:#181818;stroke-width:1;"/><line style="stroke:#181818;stroke-width:1;" x1="322.25" x2="603.4746" y1="405.3745" y2="405.3745"/><text fill="#000000" font-family="Microsoft YaHei" font-size="13" lengthAdjust="spacing" textLength="263.2246" x="334.25" y="399.9722">POST /resumes/{resumeId}/generate-latex</text></g><g class="message" data-entity-1="part3" data-entity-2="part4" id="msg10"><polygon fill="#181818" points="888.7998,432.5322,898.7998,436.5322,888.7998,440.5322,892.7998,436.5322" style="stroke:#181818;stroke-width:1;"/><line style="stroke:#181818;stroke-width:1;" x1="609.4746" x2="894.7998" y1="436.5322" y2="436.5322"/><text fill="#000000" font-family="Microsoft YaHei" font-size="13" lengthAdjust="spacing" textLength="267.3252" x="621.4746" y="431.1299">generateLatex(userId,resumeId,templateId)</text></g><g class="message" data-entity-1="part4" data-entity-2="part6" id="msg11"><polygon fill="#181818" points="1283.2563,463.6899,1293.2563,467.6899,1283.2563,471.6899,1287.2563,467.6899" style="stroke:#181818;stroke-width:1;"/><line style="stroke:#181818;stroke-width:1;" x1="900.7998" x2="1289.2563" y1="467.6899" y2="467.6899"/><text fill="#000000" font-family="Microsoft YaHei" font-size="13" lengthAdjust="spacing" textLength="179.645" x="1008.2056" y="462.2876">loadResumeDetail(resumeId)</text></g><g class="message" data-entity-1="part4" data-entity-2="part7" id="msg12"><polygon fill="#181818" points="1455.8369,494.8477,1465.8369,498.8477,1455.8369,502.8477,1459.8369,498.8477" style="stroke:#181818;stroke-width:1;"/><line style="stroke:#181818;stroke-width:1;" x1="900.7998" x2="1461.8369" y1="498.8477" y2="498.8477"/><text fill="#000000" font-family="Microsoft YaHei" font-size="13" lengthAdjust="spacing" textLength="166.0229" x="1101.3069" y="493.4453">findActiveById(templateId)</text></g><g class="message" data-entity-1="part7" data-entity-2="part4" id="msg13"><polygon fill="#181818" points="911.7998,526.0054,901.7998,530.0054,911.7998,534.0054,907.7998,530.0054" style="stroke:#181818;stroke-width:1;"/><line style="stroke:#181818;stroke-width:1;stroke-dasharray:2,2;" x1="905.7998" x2="1466.8369" y1="530.0054" y2="530.0054"/><text fill="#000000" font-family="Microsoft YaHei" font-size="13" lengthAdjust="spacing" textLength="177.9438" x="1095.3464" y="524.603">ResumeTemplate(latex path)</text></g><g class="message" data-entity-1="part4" data-entity-2="part8" id="msg14"><polygon fill="#181818" points="1623.7417,557.1631,1633.7417,561.1631,1623.7417,565.1631,1627.7417,561.1631" style="stroke:#181818;stroke-width:1;"/><line style="stroke:#181818;stroke-width:1;" x1="900.7998" x2="1629.7417" y1="561.1631" y2="561.1631"/><text fill="#000000" font-family="Microsoft YaHei" font-size="13" lengthAdjust="spacing" textLength="115.2861" x="1210.6277" y="555.7607">loadTemplateFile()</text></g><g class="message" data-entity-1="part4" data-entity-2="part5" id="msg15"><polygon fill="#181818" points="1135.4185,588.3208,1145.4185,592.3208,1135.4185,596.3208,1139.4185,592.3208" style="stroke:#181818;stroke-width:1;"/><line style="stroke:#181818;stroke-width:1;" x1="900.7998" x2="1141.4185" y1="592.3208" y2="592.3208"/><text fill="#000000" font-family="Microsoft YaHei" font-size="13" lengthAdjust="spacing" textLength="222.6187" x="912.7998" y="586.9185">generateLatex(resume,templateFile)</text></g><g class="message" data-entity-1="part5" data-entity-2="part4" id="msg16"><polygon fill="#181818" points="911.7998,619.4785,901.7998,623.4785,911.7998,627.4785,907.7998,623.4785" style="stroke:#181818;stroke-width:1;"/><line style="stroke:#181818;stroke-width:1;stroke-dasharray:2,2;" x1="905.7998" x2="1146.4185" y1="623.4785" y2="623.4785"/><text fill="#000000" font-family="Microsoft YaHei" font-size="13" lengthAdjust="spacing" textLength="65.3174" x="991.4504" y="618.0762">LatexCode</text></g><g class="message" data-entity-1="part4" data-entity-2="part3" id="msg17"><polygon fill="#181818" points="620.4746,650.6362,610.4746,654.6362,620.4746,658.6362,616.4746,654.6362" style="stroke:#181818;stroke-width:1;"/><line style="stroke:#181818;stroke-width:1;stroke-dasharray:2,2;" x1="614.4746" x2="899.7998" y1="654.6362" y2="654.6362"/><text fill="#000000" font-family="Microsoft YaHei" font-size="13" lengthAdjust="spacing" textLength="80.209" x="715.0327" y="649.2339">downloadUrl</text></g><g class="message" data-entity-1="part3" data-entity-2="part2" id="msg18"><polygon fill="#181818" points="333.25,681.7939,323.25,685.7939,333.25,689.7939,329.25,685.7939" style="stroke:#181818;stroke-width:1;"/><line style="stroke:#181818;stroke-width:1;stroke-dasharray:2,2;" x1="327.25" x2="608.4746" y1="685.7939" y2="685.7939"/><text fill="#000000" font-family="Microsoft YaHei" font-size="13" lengthAdjust="spacing" textLength="128.8511" x="401.4368" y="680.3916">LaTeX download link</text></g><?plantuml-src dLJ1Rjim3BthAtJqW1hPOQST1cJfsWPerw99WEt8IemZL94oIUvg3FltqNRaMBNJPZsAv7jyZwJj7vNPWOCjznkGzhSo1L-3ziXybzbQOyN6sIqEKXBNKEfmOKtu3fI_KS9PRzU1_uGhLBrAZxzAD09lq7ieSAfLORX04z2ne896lfhb7p_n1MeKWL_34d_m9Mvt6W9oC99Vea5NF-xHbzHhPYNod00jCJzNK50d1Y9OnrUUY1ziQIIugYEwezPCa5fdTHUSjMzDW9Ywfl3p0jsJ4fW68sXQa7Oc8S03-AZf7dVMAsfVlSn4MA-2y2fKB_8nslIg7J9ME-7vbyG3_yp9jQjIiCy-iAIgXpgO9EpbjoMVk0QRXmXc8wL4q1y5GRNoOIg2Uagw9aK4EcQQ2DRAo9Q0S4Vhyc7dWz2qsp6JhniR3ZJMDnQFZhtONs6ZePMVjPESoxD8CPSdBkBkTj5jma_-HAA_azWcho7FfwqcaPQLf9yaZMeRNrUo9cr1jk5p3A1qP_ATo_vQpMNMr_0_gqzhisOcV0TXyvQOlP7ul50QHwvr-64FfjcwxuPO4-rvKjo8-CEdVDhTqb_OrA9NJfzukUtFCkBeVitZFm00?></g></svg>