<?plantuml 1.2026.2?><svg xmlns="http://www.w3.org/2000/svg" xmlns:xlink="http://www.w3.org/1999/xlink" contentStyleType="text/css" data-diagram-type="CLASS" height="631px" preserveAspectRatio="none" style="width:539px;height:631px;background:#FFFFFF;" version="1.1" viewBox="0 0 539 631" width="539px" zoomAndPan="magnify"><title>UC-01 User Registration and Login - DCD</title><defs/><g><g class="title" data-source-line="6"><text fill="#000000" font-family="Microsoft YaHei" font-size="14" font-weight="bold" lengthAdjust="spacing" textLength="290.4043" x="117.3644" y="24.8135">UC-01 User Registration and Login - DCD</text></g><!--class AuthController--><g class="entity" data-qualified-name="AuthController" data-source-line="7" id="ent0002"><rect fill="#F1F1F1" height="115.748" rx="2.5" ry="2.5" style="stroke:#181818;stroke-width:0.5;" width="136.8174" x="223.23" y="46.4775"/><ellipse cx="240.6641" cy="68.6353" fill="#ADD1B2" rx="11" ry="11" style="stroke:#181818;stroke-width:1;"/><path d="M243.4298,64.5103 Q243.586,64.2915 243.7735,64.1821 Q243.961,64.0728 244.1798,64.0728 Q244.5548,64.0728 244.7891,64.3384 Q245.0235,64.5884 245.0235,65.1978 L245.0235,66.6509 Q245.0235,67.2603 244.7891,67.5259 Q244.5548,67.7915 244.1798,67.7915 Q243.836,67.7915 243.6329,67.5884 Q243.4298,67.4009 243.3204,66.8853 Q243.2735,66.5259 243.086,66.3384 Q242.7579,65.9634 242.1485,65.7446 Q241.5391,65.5259 240.9141,65.5259 Q240.1485,65.5259 239.5079,65.854 Q238.8829,66.1821 238.3829,66.9321 Q237.8985,67.6821 237.8985,68.7134 L237.8985,69.8071 Q237.8985,71.0415 238.7891,71.8696 Q239.6798,72.6821 241.2735,72.6821 Q242.211,72.6821 242.8673,72.4321 Q243.2579,72.2759 243.6798,71.8384 Q243.9454,71.5728 244.086,71.4946 Q244.2423,71.4165 244.4454,71.4165 Q244.7735,71.4165 245.0235,71.6821 Q245.2891,71.9321 245.2891,72.2759 Q245.2891,72.6196 244.9454,73.0259 Q244.4454,73.604 243.6485,73.9321 Q242.5704,74.3853 241.2735,74.3853 Q239.7579,74.3853 238.5548,73.7603 Q237.5704,73.2603 236.8829,72.1978 Q236.1954,71.1196 236.1954,69.8384 L236.1954,68.6821 Q236.1954,67.354 236.8048,66.2134 Q237.4298,65.0571 238.5235,64.4478 Q239.6173,63.8228 240.8516,63.8228 Q241.586,63.8228 242.2266,63.9946 Q242.8829,64.1509 243.4298,64.5103 Z " fill="#000000"/><text fill="#000000" font-family="Microsoft YaHei" font-size="12" font-style="italic" lengthAdjust="spacing" textLength="68.8359" x="270.4912" y="64.1748">&#171;controller&#187;</text><text fill="#000000" font-family="Microsoft YaHei" font-size="14" lengthAdjust="spacing" textLength="99.4082" x="255.205" y="82.1289">AuthController</text><line style="stroke:#181818;stroke-width:0.5;" x1="224.23" x2="359.0474" y1="90.793" y2="90.793"/><line style="stroke:#181818;stroke-width:0.5;" x1="224.23" x2="359.0474" y1="98.793" y2="98.793"/><g data-visibility-modifier="PUBLIC_METHOD"><ellipse cx="234.23" cy="113.5317" fill="#84BE84" rx="3" ry="3" style="stroke:#038048;stroke-width:1;"/></g><text fill="#000000" font-family="Microsoft YaHei" font-size="14" lengthAdjust="spacing" textLength="110.8174" x="243.23" y="117.6064">register(request)</text><g data-visibility-modifier="PUBLIC_METHOD"><ellipse cx="234.23" cy="132.0093" fill="#84BE84" rx="3" ry="3" style="stroke:#038048;stroke-width:1;"/></g><text fill="#000000" font-family="Microsoft YaHei" font-size="14" lengthAdjust="spacing" textLength="93.7959" x="243.23" y="136.084">login(request)</text><g data-visibility-modifier="PUBLIC_METHOD"><ellipse cx="234.23" cy="150.4868" fill="#84BE84" rx="3" ry="3" style="stroke:#038048;stroke-width:1;"/></g><text fill="#000000" font-family="Microsoft YaHei" font-size="14" lengthAdjust="spacing" textLength="68.7217" x="243.23" y="154.5615">me(token)</text></g><!--class AuthService--><g class="entity" data-qualified-name="AuthService" data-source-line="12" id="ent0003"><rect fill="#F1F1F1" height="134.2256" rx="2.5" ry="2.5" style="stroke:#181818;stroke-width:0.5;" width="246.3428" x="168.47" y="222.2275"/><ellipse cx="247.531" cy="244.3853" fill="#ADD1B2" rx="11" ry="11" style="stroke:#181818;stroke-width:1;"/><path d="M250.2967,240.2603 Q250.4529,240.0415 250.6404,239.9321 Q250.8279,239.8228 251.0467,239.8228 Q251.4217,239.8228 251.656,240.0884 Q251.8904,240.3384 251.8904,240.9478 L251.8904,242.4009 Q251.8904,243.0103 251.656,243.2759 Q251.4217,243.5415 251.0467,243.5415 Q250.7029,243.5415 250.4998,243.3384 Q250.2967,243.1509 250.1873,242.6353 Q250.1404,242.2759 249.9529,242.0884 Q249.6248,241.7134 249.0154,241.4946 Q248.406,241.2759 247.781,241.2759 Q247.0154,241.2759 246.3748,241.604 Q245.7498,241.9321 245.2498,242.6821 Q244.7654,243.4321 244.7654,244.4634 L244.7654,245.5571 Q244.7654,246.7915 245.656,247.6196 Q246.5467,248.4321 248.1404,248.4321 Q249.0779,248.4321 249.7342,248.1821 Q250.1248,248.0259 250.5467,247.5884 Q250.8123,247.3228 250.9529,247.2446 Q251.1092,247.1665 251.3123,247.1665 Q251.6404,247.1665 251.8904,247.4321 Q252.156,247.6821 252.156,248.0259 Q252.156,248.3696 251.8123,248.7759 Q251.3123,249.354 250.5154,249.6821 Q249.4373,250.1353 248.1404,250.1353 Q246.6248,250.1353 245.4217,249.5103 Q244.4373,249.0103 243.7498,247.9478 Q243.0623,246.8696 243.0623,245.5884 L243.0623,244.4321 Q243.0623,243.104 243.6717,241.9634 Q244.2967,240.8071 245.3904,240.1978 Q246.4842,239.5728 247.7185,239.5728 Q248.4529,239.5728 249.0935,239.7446 Q249.7498,239.9009 250.2967,240.2603 Z " fill="#000000"/><text fill="#000000" font-family="Microsoft YaHei" font-size="12" font-style="italic" lengthAdjust="spacing" textLength="52.5996" x="281.5916" y="239.9248">&#171;service&#187;</text><text fill="#000000" font-family="Microsoft YaHei" font-size="14" lengthAdjust="spacing" textLength="79.7207" x="268.031" y="257.8789">AuthService</text><line style="stroke:#181818;stroke-width:0.5;" x1="169.47" x2="413.8128" y1="266.543" y2="266.543"/><line style="stroke:#181818;stroke-width:0.5;" x1="169.47" x2="413.8128" y1="274.543" y2="274.543"/><g data-visibility-modifier="PUBLIC_METHOD"><ellipse cx="179.47" cy="289.2817" fill="#84BE84" rx="3" ry="3" style="stroke:#038048;stroke-width:1;"/></g><text fill="#000000" font-family="Microsoft YaHei" font-size="14" lengthAdjust="spacing" textLength="220.3428" x="188.47" y="293.3564">register(account,password,email)</text><g data-visibility-modifier="PUBLIC_METHOD"><ellipse cx="179.47" cy="307.7593" fill="#84BE84" rx="3" ry="3" style="stroke:#038048;stroke-width:1;"/></g><text fill="#000000" font-family="Microsoft YaHei" font-size="14" lengthAdjust="spacing" textLength="163.7002" x="188.47" y="311.834">login(account,password)</text><g data-visibility-modifier="PUBLIC_METHOD"><ellipse cx="179.47" cy="326.2368" fill="#84BE84" rx="3" ry="3" style="stroke:#038048;stroke-width:1;"/></g><text fill="#000000" font-family="Microsoft YaHei" font-size="14" lengthAdjust="spacing" textLength="168.2256" x="188.47" y="330.3115">hashPassword(password)</text><g data-visibility-modifier="PUBLIC_METHOD"><ellipse cx="179.47" cy="344.7144" fill="#84BE84" rx="3" ry="3" style="stroke:#038048;stroke-width:1;"/></g><text fill="#000000" font-family="Microsoft YaHei" font-size="14" lengthAdjust="spacing" textLength="208.2227" x="188.47" y="348.7891">verifyPassword(password,hash)</text></g><!--class UserAccountRepository--><g class="entity" data-qualified-name="UserAccountRepository" data-source-line="18" id="ent0004"><rect fill="#F1F1F1" height="134.2256" rx="2.5" ry="2.5" style="stroke:#181818;stroke-width:0.5;" width="289.2793" x="7" y="453.4075"/><ellipse cx="68.6465" cy="475.5653" fill="#ADD1B2" rx="11" ry="11" style="stroke:#181818;stroke-width:1;"/><path d="M71.4121,471.4403 Q71.5684,471.2215 71.7559,471.1121 Q71.9434,471.0028 72.1621,471.0028 Q72.5371,471.0028 72.7715,471.2684 Q73.0059,471.5184 73.0059,472.1278 L73.0059,473.5809 Q73.0059,474.1903 72.7715,474.4559 Q72.5371,474.7215 72.1621,474.7215 Q71.8184,474.7215 71.6152,474.5184 Q71.4121,474.3309 71.3027,473.8153 Q71.2559,473.4559 71.0684,473.2684 Q70.7402,472.8934 70.1309,472.6746 Q69.5215,472.4559 68.8965,472.4559 Q68.1309,472.4559 67.4902,472.784 Q66.8652,473.1121 66.3652,473.8621 Q65.8809,474.6121 65.8809,475.6434 L65.8809,476.7371 Q65.8809,477.9715 66.7715,478.7996 Q67.6621,479.6121 69.2559,479.6121 Q70.1934,479.6121 70.8496,479.3621 Q71.2402,479.2059 71.6621,478.7684 Q71.9277,478.5028 72.0684,478.4246 Q72.2246,478.3465 72.4277,478.3465 Q72.7559,478.3465 73.0059,478.6121 Q73.2715,478.8621 73.2715,479.2059 Q73.2715,479.5496 72.9277,479.9559 Q72.4277,480.534 71.6309,480.8621 Q70.5527,481.3153 69.2559,481.3153 Q67.7402,481.3153 66.5371,480.6903 Q65.5527,480.1903 64.8652,479.1278 Q64.1777,478.0496 64.1777,476.7684 L64.1777,475.6121 Q64.1777,474.284 64.7871,473.1434 Q65.4121,471.9871 66.5059,471.3778 Q67.5996,470.7528 68.834,470.7528 Q69.5684,470.7528 70.209,470.9246 Q70.8652,471.0809 71.4121,471.4403 Z " fill="#000000"/><text fill="#000000" font-family="Microsoft YaHei" font-size="12" font-style="italic" lengthAdjust="spacing" textLength="71.8008" x="131.9893" y="471.1048">&#171;repository&#187;</text><text fill="#000000" font-family="Microsoft YaHei" font-size="14" lengthAdjust="spacing" textLength="157.4863" x="89.1465" y="489.0589">UserAccountRepository</text><line style="stroke:#181818;stroke-width:0.5;" x1="8" x2="295.2793" y1="497.723" y2="497.723"/><line style="stroke:#181818;stroke-width:0.5;" x1="8" x2="295.2793" y1="505.723" y2="505.723"/><g data-visibility-modifier="PUBLIC_METHOD"><ellipse cx="18" cy="520.4617" fill="#84BE84" rx="3" ry="3" style="stroke:#038048;stroke-width:1;"/></g><text fill="#000000" font-family="Microsoft YaHei" font-size="14" lengthAdjust="spacing" textLength="263.2793" x="27" y="524.5364">existsByAccountOrEmail(account,email)</text><g data-visibility-modifier="PUBLIC_METHOD"><ellipse cx="18" cy="538.9393" fill="#84BE84" rx="3" ry="3" style="stroke:#038048;stroke-width:1;"/></g><text fill="#000000" font-family="Microsoft YaHei" font-size="14" lengthAdjust="spacing" textLength="160.1182" x="27" y="543.014">findByAccount(account)</text><g data-visibility-modifier="PUBLIC_METHOD"><ellipse cx="18" cy="557.4168" fill="#84BE84" rx="3" ry="3" style="stroke:#038048;stroke-width:1;"/></g><text fill="#000000" font-family="Microsoft YaHei" font-size="14" lengthAdjust="spacing" textLength="122.5205" x="27" y="561.4915">save(userAccount)</text><g data-visibility-modifier="PUBLIC_METHOD"><ellipse cx="18" cy="575.8944" fill="#84BE84" rx="3" ry="3" style="stroke:#038048;stroke-width:1;"/></g><text fill="#000000" font-family="Microsoft YaHei" font-size="14" lengthAdjust="spacing" textLength="195.0635" x="27" y="579.9691">updateLastLoginTime(userId)</text></g><!--class UserAccount--><g class="entity" data-qualified-name="UserAccount" data-source-line="24" id="ent0005"><rect fill="#F1F1F1" height="208.1357" rx="2.5" ry="2.5" style="stroke:#181818;stroke-width:0.5;" width="200.9932" x="331.14" y="416.4475"/><ellipse cx="384.6449" cy="438.6053" fill="#ADD1B2" rx="11" ry="11" style="stroke:#181818;stroke-width:1;"/><path d="M387.4105,434.4803 Q387.5668,434.2615 387.7543,434.1521 Q387.9418,434.0428 388.1605,434.0428 Q388.5355,434.0428 388.7699,434.3084 Q389.0043,434.5584 389.0043,435.1678 L389.0043,436.6209 Q389.0043,437.2303 388.7699,437.4959 Q388.5355,437.7615 388.1605,437.7615 Q387.8168,437.7615 387.6136,437.5584 Q387.4105,437.3709 387.3011,436.8553 Q387.2543,436.4959 387.0668,436.3084 Q386.7386,435.9334 386.1293,435.7146 Q385.5199,435.4959 384.8949,435.4959 Q384.1293,435.4959 383.4886,435.824 Q382.8636,436.1521 382.3636,436.9021 Q381.8793,437.6521 381.8793,438.6834 L381.8793,439.7771 Q381.8793,441.0115 382.7699,441.8396 Q383.6605,442.6521 385.2543,442.6521 Q386.1918,442.6521 386.848,442.4021 Q387.2386,442.2459 387.6605,441.8084 Q387.9261,441.5428 388.0668,441.4646 Q388.223,441.3865 388.4261,441.3865 Q388.7543,441.3865 389.0043,441.6521 Q389.2699,441.9021 389.2699,442.2459 Q389.2699,442.5896 388.9261,442.9959 Q388.4261,443.574 387.6293,443.9021 Q386.5511,444.3553 385.2543,444.3553 Q383.7386,444.3553 382.5355,443.7303 Q381.5511,443.2303 380.8636,442.1678 Q380.1761,441.0896 380.1761,439.8084 L380.1761,438.6521 Q380.1761,437.324 380.7855,436.1834 Q381.4105,435.0271 382.5043,434.4178 Q383.598,433.7928 384.8324,433.7928 Q385.5668,433.7928 386.2074,433.9646 Q386.8636,434.1209 387.4105,434.4803 Z " fill="#000000"/><text fill="#000000" font-family="Microsoft YaHei" font-size="12" font-style="italic" lengthAdjust="spacing" textLength="46.0254" x="424.8739" y="434.1448">&#171;entity&#187;</text><text fill="#000000" font-family="Microsoft YaHei" font-size="14" lengthAdjust="spacing" textLength="85.4834" x="405.1449" y="452.0989">UserAccount</text><line style="stroke:#181818;stroke-width:0.5;" x1="332.14" x2="531.1332" y1="460.763" y2="460.763"/><g data-visibility-modifier="PRIVATE_FIELD"><rect fill="none" height="6" style="stroke:#C82930;stroke-width:1;" width="6" x="339.14" y="472.5017"/></g><text fill="#000000" font-family="Microsoft YaHei" font-size="14" lengthAdjust="spacing" textLength="12.6807" x="351.14" y="479.5764">id</text><g data-visibility-modifier="PRIVATE_FIELD"><rect fill="none" height="6" style="stroke:#C82930;stroke-width:1;" width="6" x="339.14" y="490.9793"/></g><text fill="#000000" font-family="Microsoft YaHei" font-size="14" lengthAdjust="spacing" textLength="53.1494" x="351.14" y="498.054">account</text><g data-visibility-modifier="PRIVATE_FIELD"><rect fill="none" height="6" style="stroke:#C82930;stroke-width:1;" width="6" x="339.14" y="509.4568"/></g><text fill="#000000" font-family="Microsoft YaHei" font-size="14" lengthAdjust="spacing" textLength="97.5625" x="351.14" y="516.5315">passwordHash</text><g data-visibility-modifier="PRIVATE_FIELD"><rect fill="none" height="6" style="stroke:#C82930;stroke-width:1;" width="6" x="339.14" y="527.9344"/></g><text fill="#000000" font-family="Microsoft YaHei" font-size="14" lengthAdjust="spacing" textLength="36.251" x="351.14" y="535.0091">email</text><g data-visibility-modifier="PRIVATE_FIELD"><rect fill="none" height="6" style="stroke:#C82930;stroke-width:1;" width="6" x="339.14" y="546.4119"/></g><text fill="#000000" font-family="Microsoft YaHei" font-size="14" lengthAdjust="spacing" textLength="25.915" x="351.14" y="553.4866">role</text><g data-visibility-modifier="PRIVATE_FIELD"><rect fill="none" height="6" style="stroke:#C82930;stroke-width:1;" width="6" x="339.14" y="564.8894"/></g><text fill="#000000" font-family="Microsoft YaHei" font-size="14" lengthAdjust="spacing" textLength="39.7578" x="351.14" y="571.9641">status</text><line style="stroke:#181818;stroke-width:0.5;" x1="332.14" x2="531.1332" y1="579.6282" y2="579.6282"/><g data-visibility-modifier="PUBLIC_METHOD"><ellipse cx="342.14" cy="594.367" fill="#84BE84" rx="3" ry="3" style="stroke:#038048;stroke-width:1;"/></g><text fill="#000000" font-family="Microsoft YaHei" font-size="14" lengthAdjust="spacing" textLength="174.9932" x="351.14" y="598.4417">checkPassword(password)</text><g data-visibility-modifier="PUBLIC_METHOD"><ellipse cx="342.14" cy="612.8445" fill="#84BE84" rx="3" ry="3" style="stroke:#038048;stroke-width:1;"/></g><text fill="#000000" font-family="Microsoft YaHei" font-size="14" lengthAdjust="spacing" textLength="139.3711" x="351.14" y="616.9192">changeStatus(status)</text></g><!--link AuthController to AuthService--><g class="link" data-entity-1="ent0002" data-entity-2="ent0003" data-link-type="dependency" data-source-line="34" id="lnk6"><path codeLine="34" d="M291.64,162.4975 C291.64,181.3775 291.64,196.5275 291.64,216.0275" fill="none" id="AuthController-to-AuthService" style="stroke:#181818;stroke-width:1;"/><polygon fill="#181818" points="291.64,222.0275,295.64,213.0275,291.64,217.0275,287.64,213.0275,291.64,222.0275" style="stroke:#181818;stroke-width:1;"/></g><!--link AuthService to UserAccountRepository--><g class="link" data-entity-1="ent0003" data-entity-2="ent0004" data-link-type="dependency" data-source-line="35" id="lnk7"><path codeLine="35" d="M250.96,356.9375 C232.47,387.1975 213.7775,417.7971 195.3075,448.0371" fill="none" id="AuthService-to-UserAccountRepository" style="stroke:#181818;stroke-width:1;"/><polygon fill="#181818" points="192.18,453.1575,200.2848,447.5619,194.7862,448.8905,193.4576,443.3919,192.18,453.1575" style="stroke:#181818;stroke-width:1;"/></g><!--link AuthService to UserAccount--><g class="link" data-entity-1="ent0003" data-entity-2="ent0005" data-link-type="dependency" data-source-line="36" id="lnk8"><path codeLine="36" d="M332.32,356.9375 C343.62,375.4375 353.0415,390.8577 365.3115,410.9377" fill="none" id="AuthService-to-UserAccount" style="stroke:#181818;stroke-width:1;"/><polygon fill="#181818" points="368.44,416.0575,367.1605,406.2922,365.8329,411.791,360.334,410.4635,368.44,416.0575" style="stroke:#181818;stroke-width:1;"/></g><?plantuml-src VL9DJyCm3BttL-HOn2h17KqQ6mYa3H2m0qShTLjhQJ9YTp0X_Zj9jtNTXxWqiT_pyujTNf1TWeTQSGMv-o9RgW8COy8TKZlhTELTZITGZWKqHkwTbIS8-8oqT-mAKH_mWDHZCdusQ3NEa1bA71aghT9e1NqY90RLV9nTNQiverUlM1AB1o5d5TXSJLr9LcLgCfuasW2p6ZLIZKDRxum95JStkWk6G_MJA7NfMnNqgO-zMIvYqaIbWqoDgRW5selajwVzXdv56eCmRsudgg2rQwmCbg7ao_byW3MGwJKv9hHG1LozR1Ff0R92JyNw11l4YhstE9_HHlWLbuv9d5y7bxuBTaRnE_Zas_MM_Upleh_ErTvjGJRlQ3kyHHXMc3RxZcsoMUOWE0MMTYllL6yuZ_bPby5Rs3B9pbT6UVnksyJhxgKFuQ4nRft5IrWdnfC5fE7OMrUe5-V7fokm9Rwrr7HJ4VqS_ITPDkolD-clEc9dn_iVwmy0?></g></svg>